<?xml version="1.0" encoding="utf-8"?>
<!-- Generator: Adobe Illustrator 25.0.1, SVG Export Plug-In . SVG Version: 6.00 Build 0)  -->
<svg version="1.1" id="Camada_1" xmlns="http://www.w3.org/2000/svg" xmlns:xlink="http://www.w3.org/1999/xlink" x="0px" y="0px"
	 viewBox="0 0 129.03 77.302" style="enable-background:new 0 0 129.03 77.302;" xml:space="preserve">
<style type="text/css">
	.st0{enable-background:new    ;}
	.st1{fill:#FFFFFF;}
	.st2{fill:#5CB646;}
</style>
<g>
	<g class="st0">
		<path class="st1" d="M8.346,10.111v7.453h12.034v4.231H8.346v11.18H3.765V5.842h18.089l-0.039,4.27H8.346z"/>
	</g>
	<g>
	</g>
	<g class="st0">
		<path class="st1" d="M40.758,23.504v-11.18h4.348v20.651h-4.348V29.21c-0.699,1.269-1.663,2.265-2.892,2.989
			s-2.556,1.087-3.979,1.087c-2.329,0-4.212-0.712-5.648-2.135c-1.437-1.423-2.155-3.48-2.155-6.172V12.324h4.348v11.335
			c0,3.805,1.579,5.706,4.736,5.706c1.5,0,2.808-0.498,3.921-1.494C40.202,26.875,40.758,25.419,40.758,23.504z"/>
		<path class="st1" d="M56.052,15.818v10.48c0,0.983,0.259,1.767,0.776,2.349s1.242,0.873,2.174,0.873s1.825-0.452,2.679-1.358
			l1.786,3.066c-1.527,1.372-3.216,2.058-5.066,2.058c-1.851,0-3.429-0.641-4.736-1.922c-1.307-1.28-1.96-3.008-1.96-5.182V15.818
			h-2.601v-3.494h2.601V5.842h4.348v6.482h5.435v3.494H56.052z"/>
		<path class="st1" d="M80.663,23.504v-11.18h4.348v20.651h-4.348V29.21c-0.698,1.269-1.663,2.265-2.892,2.989
			c-1.229,0.725-2.556,1.087-3.979,1.087c-2.329,0-4.212-0.712-5.648-2.135s-2.155-3.48-2.155-6.172V12.324h4.348v11.335
			c0,3.805,1.578,5.706,4.735,5.706c1.501,0,2.808-0.498,3.921-1.494C80.106,26.875,80.663,25.419,80.663,23.504z"/>
	</g>
	<g>
	</g>
	<g class="st0">
		<path class="st1" d="M105.157,16.4c-2.148,0-3.766,0.698-4.853,2.096s-1.63,3.274-1.63,5.629v8.851h-4.348V12.324h4.348v4.153
			c0.698-1.293,1.649-2.354,2.854-3.183c1.203-0.828,2.478-1.255,3.823-1.281l0.039,4.387C105.313,16.4,105.235,16.4,105.157,16.4z"
			/>
	</g>
	<g>
	</g>
	<g class="st0">
		<path class="st1" d="M128.1,24.552h-16.188c0.104,1.502,0.789,2.712,2.058,3.63c1.268,0.919,2.717,1.378,4.348,1.378
			c2.587,0,4.554-0.815,5.9-2.445l2.484,2.717c-2.227,2.304-5.124,3.455-8.695,3.455c-2.899,0-5.364-0.964-7.396-2.892
			s-3.047-4.516-3.047-7.764s1.035-5.829,3.105-7.744s4.509-2.873,7.317-2.873c2.808,0,5.194,0.848,7.162,2.543
			c1.966,1.695,2.95,4.031,2.95,7.007V24.552z M111.912,21.136h11.84c0-1.733-0.544-3.066-1.631-3.998s-2.426-1.397-4.018-1.397
			s-3.021,0.485-4.289,1.456C112.546,18.167,111.912,19.48,111.912,21.136z"/>
	</g>
	<g class="st0">
		<path class="st2" d="M25.261,61.93v5.046H4.222V39.803h20.535v5.047H10.472v5.9h12.616v4.891H10.472v6.289H25.261z"/>
	</g>
	<g>
	</g>
	<g class="st0">
		<path class="st2" d="M45.407,48.091c1.733,1.54,2.601,3.862,2.601,6.968v11.917h-5.667v-2.601
			c-1.139,1.94-3.261,2.911-6.366,2.911c-1.605,0-2.996-0.271-4.173-0.815c-1.178-0.543-2.077-1.294-2.698-2.251
			s-0.932-2.044-0.932-3.261c0-1.941,0.731-3.468,2.193-4.581c1.462-1.112,3.72-1.669,6.774-1.669h4.813
			c0-1.319-0.402-2.335-1.204-3.047c-0.802-0.712-2.006-1.067-3.61-1.067c-1.113,0-2.207,0.175-3.28,0.523
			c-1.074,0.35-1.986,0.822-2.737,1.417l-2.174-4.231c1.139-0.802,2.504-1.423,4.096-1.863c1.591-0.439,3.228-0.659,4.91-0.659
			C41.189,45.781,43.673,46.551,45.407,48.091z M40.245,62.492c0.802-0.479,1.371-1.184,1.708-2.115v-2.136h-4.154
			c-2.484,0-3.727,0.815-3.727,2.446c0,0.776,0.304,1.391,0.913,1.844c0.607,0.453,1.442,0.679,2.503,0.679
			C38.523,63.21,39.442,62.972,40.245,62.492z"/>
		<path class="st2" d="M66.834,65.967c-0.596,0.439-1.326,0.77-2.193,0.989s-1.779,0.33-2.736,0.33
			c-2.484,0-4.406-0.634-5.765-1.902c-1.358-1.268-2.038-3.131-2.038-5.59v-8.578H50.88v-4.658h3.222v-5.086h6.056v5.086h5.202
			v4.658h-5.202v8.501c0,0.88,0.227,1.56,0.68,2.038c0.452,0.479,1.093,0.718,1.921,0.718c0.957,0,1.772-0.259,2.445-0.776
			L66.834,65.967z"/>
		<path class="st2" d="M72.075,66.646c-1.656-0.427-2.977-0.964-3.96-1.61l2.019-4.348c0.932,0.595,2.058,1.08,3.377,1.455
			c1.32,0.376,2.614,0.563,3.882,0.563c2.563,0,3.844-0.634,3.844-1.902c0-0.595-0.35-1.022-1.049-1.281
			c-0.698-0.259-1.772-0.479-3.222-0.66c-1.708-0.258-3.118-0.556-4.231-0.893c-1.112-0.336-2.076-0.932-2.892-1.785
			c-0.815-0.854-1.223-2.07-1.223-3.649c0-1.319,0.382-2.49,1.146-3.513c0.763-1.022,1.876-1.818,3.338-2.388
			c1.462-0.568,3.189-0.854,5.183-0.854c1.475,0,2.943,0.162,4.405,0.485s2.672,0.77,3.63,1.339l-2.019,4.309
			c-1.838-1.034-3.843-1.553-6.017-1.553c-1.295,0-2.265,0.182-2.912,0.544c-0.646,0.362-0.97,0.828-0.97,1.397
			c0,0.646,0.349,1.1,1.048,1.358c0.698,0.259,1.811,0.505,3.338,0.737c1.708,0.285,3.105,0.589,4.192,0.912
			c1.087,0.324,2.031,0.912,2.834,1.767c0.802,0.854,1.203,2.045,1.203,3.571c0,1.294-0.388,2.445-1.164,3.455
			c-0.776,1.009-1.909,1.792-3.396,2.348c-1.488,0.557-3.255,0.835-5.299,0.835C75.426,67.286,73.73,67.072,72.075,66.646z"/>
	</g>
</g>
</svg>
