<?xml version="1.0" encoding="utf-8"?>
<!-- Generator: Adobe Illustrator 25.0.1, SVG Export Plug-In . SVG Version: 6.00 Build 0)  -->
<svg version="1.1" id="Camada_1" xmlns="http://www.w3.org/2000/svg" xmlns:xlink="http://www.w3.org/1999/xlink" x="0px" y="0px"
	 viewBox="0 0 106.368 64.695" style="enable-background:new 0 0 106.368 64.695;" xml:space="preserve">
<style type="text/css">
	.st0{enable-background:new    ;}
	.st1{fill:#5CB646;}
</style>
<g>
	<g class="st0">
		<path d="M6.88,8.336v6.144h9.92v3.488H6.88v9.216H3.104V4.815h14.912l-0.032,3.521H6.88z"/>
	</g>
	<g>
	</g>
	<g class="st0">
		<path d="M33.6,19.376v-9.217h3.584v17.024H33.6V24.08c-0.576,1.045-1.371,1.866-2.384,2.464c-1.013,0.597-2.107,0.896-3.28,0.896
			c-1.92,0-3.472-0.586-4.656-1.76c-1.184-1.173-1.776-2.869-1.776-5.088V10.159h3.584v9.345c0,3.136,1.301,4.704,3.904,4.704
			c1.237,0,2.314-0.411,3.232-1.232C33.141,22.154,33.6,20.955,33.6,19.376z"/>
		<path d="M46.208,13.04v8.64c0,0.811,0.213,1.456,0.64,1.936c0.427,0.48,1.024,0.721,1.792,0.721s1.504-0.373,2.208-1.12
			l1.472,2.527c-1.259,1.132-2.651,1.696-4.176,1.696s-2.827-0.528-3.904-1.584c-1.078-1.056-1.616-2.479-1.616-4.271V13.04h-2.144
			v-2.881h2.144V4.815h3.584v5.344h4.48v2.881H46.208z"/>
		<path d="M66.496,19.376v-9.217h3.584v17.024h-3.584V24.08c-0.576,1.045-1.371,1.866-2.385,2.464
			c-1.013,0.597-2.106,0.896-3.279,0.896c-1.92,0-3.473-0.586-4.656-1.76c-1.184-1.173-1.776-2.869-1.776-5.088V10.159h3.584v9.345
			c0,3.136,1.301,4.704,3.904,4.704c1.236,0,2.314-0.411,3.231-1.232S66.496,20.955,66.496,19.376z"/>
	</g>
	<g>
	</g>
	<g class="st0">
		<path d="M86.688,13.52c-1.771,0-3.104,0.576-4,1.729c-0.896,1.151-1.345,2.698-1.345,4.64v7.296H77.76V10.159h3.584v3.425
			c0.576-1.066,1.36-1.941,2.353-2.624s2.042-1.035,3.152-1.057l0.031,3.616C86.816,13.52,86.752,13.52,86.688,13.52z"/>
	</g>
	<g>
	</g>
	<g class="st0">
		<path d="M105.601,20.239H92.256c0.085,1.238,0.65,2.235,1.696,2.992c1.045,0.758,2.24,1.136,3.584,1.136
			c2.133,0,3.755-0.672,4.864-2.016l2.048,2.24c-1.835,1.898-4.224,2.848-7.168,2.848c-2.39,0-4.422-0.794-6.096-2.384
			c-1.676-1.589-2.513-3.723-2.513-6.4c0-2.677,0.854-4.805,2.561-6.384c1.706-1.578,3.717-2.368,6.032-2.368
			c2.314,0,4.282,0.699,5.903,2.097s2.433,3.322,2.433,5.775V20.239z M92.256,17.424h9.761c0-1.43-0.448-2.528-1.345-3.296
			c-0.896-0.769-2-1.152-3.312-1.152c-1.313,0-2.491,0.4-3.536,1.2C92.778,14.976,92.256,16.059,92.256,17.424z"/>
	</g>
	<g class="st0">
		<path class="st1" d="M21,52.023v4.16H3.656v-22.4h16.928v4.16H8.808v4.864h10.4v4.032h-10.4v5.184H21z"/>
	</g>
	<g>
	</g>
	<g class="st0">
		<path class="st1" d="M37.608,40.615c1.429,1.27,2.144,3.185,2.144,5.744v9.824H35.08V54.04c-0.939,1.6-2.688,2.399-5.248,2.399
			c-1.323,0-2.47-0.224-3.44-0.672s-1.712-1.066-2.224-1.856c-0.512-0.788-0.768-1.685-0.768-2.688c0-1.6,0.603-2.858,1.808-3.776
			c1.205-0.917,3.066-1.376,5.584-1.376h3.968c0-1.088-0.331-1.925-0.992-2.512s-1.653-0.88-2.976-0.88
			c-0.917,0-1.819,0.144-2.704,0.432c-0.886,0.288-1.638,0.678-2.256,1.168l-1.792-3.487c0.938-0.661,2.064-1.174,3.376-1.536
			s2.661-0.544,4.048-0.544C34.13,38.712,36.178,39.347,37.608,40.615z M33.352,52.487c0.661-0.395,1.13-0.976,1.408-1.744v-1.76
			h-3.424c-2.048,0-3.072,0.672-3.072,2.017c0,0.64,0.25,1.146,0.752,1.52c0.501,0.374,1.189,0.561,2.064,0.561
			C31.933,53.08,32.69,52.883,33.352,52.487z"/>
		<path class="st1" d="M55.24,55.352c-0.491,0.363-1.094,0.635-1.808,0.816c-0.715,0.181-1.467,0.271-2.256,0.271
			c-2.048,0-3.632-0.522-4.752-1.567c-1.12-1.046-1.68-2.581-1.68-4.608v-7.072h-2.656v-3.84h2.656v-4.192h4.992v4.192h4.288v3.84
			h-4.288v7.008c0,0.726,0.187,1.286,0.56,1.681c0.373,0.395,0.901,0.592,1.584,0.592c0.789,0,1.461-0.213,2.016-0.64L55.24,55.352z
			"/>
		<path class="st1" d="M59.527,55.911c-1.365-0.352-2.453-0.794-3.264-1.327L57.928,51c0.768,0.49,1.696,0.891,2.784,1.199
			c1.088,0.31,2.154,0.465,3.2,0.465c2.111,0,3.168-0.523,3.168-1.568c0-0.49-0.288-0.843-0.864-1.056
			c-0.576-0.214-1.462-0.395-2.656-0.545c-1.408-0.213-2.57-0.458-3.487-0.735c-0.918-0.277-1.713-0.769-2.385-1.473
			c-0.672-0.703-1.008-1.706-1.008-3.008c0-1.088,0.314-2.053,0.944-2.896c0.629-0.843,1.546-1.499,2.752-1.968
			c1.205-0.47,2.629-0.704,4.271-0.704c1.217,0,2.427,0.133,3.632,0.399c1.205,0.268,2.203,0.636,2.992,1.104l-1.664,3.552
			c-1.515-0.853-3.168-1.28-4.96-1.28c-1.066,0-1.866,0.149-2.399,0.448c-0.534,0.299-0.8,0.683-0.8,1.152
			c0,0.533,0.287,0.906,0.863,1.12c0.576,0.213,1.493,0.416,2.752,0.607c1.408,0.235,2.561,0.485,3.456,0.752
			c0.896,0.268,1.675,0.752,2.336,1.456s0.992,1.686,0.992,2.944c0,1.066-0.32,2.016-0.96,2.848s-1.573,1.478-2.8,1.937
			c-1.228,0.458-2.684,0.688-4.368,0.688C62.29,56.439,60.893,56.264,59.527,55.911z"/>
	</g>
</g>
</svg>
